<?xml version="1.0" encoding="utf-8"?>
<svg version="1.2" width="1024px" height="1024px" xmlns:xlink="http://www.w3.org/1999/xlink" baseProfile="tiny-ps" xmlns="http://www.w3.org/2000/svg">
  <title>No Clocks Brand Logo</title>
  <g>
    <path fill="#060707" d="M 292.5,300.5 C 292.489,302.017 291.823,303.184 290.5,304C 292.917,305.144 293.584,306.81 292.5,309C 293.931,309.465 295.097,310.299 296,311.5C 299.528,320.057 303.695,328.224 308.5,336C 307.346,336.914 307.513,337.747 309,338.5C 309.342,336.381 310.175,336.047 311.5,337.5C 311.674,340.874 312.174,344.207 313,347.5C 316.74,352.049 319.74,357.049 322,362.5C 322.671,363.252 323.504,363.586 324.5,363.5C 324.119,364.931 323.119,365.764 321.5,366C 326.98,371.129 330.147,377.296 331,384.5C 331.333,383.833 331.667,383.167 332,382.5C 334.704,389.486 337.37,395.819 340,401.5C 340.333,401.167 340.667,400.833 341,400.5C 343.451,406.24 346.118,412.573 349,419.5C 349.667,420.167 350.333,420.833 351,421.5C 351.77,420.402 352.603,420.402 353.5,421.5C 370.272,454.044 386.772,486.71 403,519.5C 403.793,455.828 403.626,392.162 402.5,328.5C 402.724,320.815 403.224,313.149 404,305.5C 406.263,298.903 410.763,294.736 417.5,293C 436.167,292.333 454.833,292.333 473.5,293C 483.192,295.866 488.525,302.366 489.5,312.5C 488.171,338.336 488.171,364.336 489.5,390.5C 490.107,390.376 490.44,390.043 490.5,389.5C 502.118,385.046 509.284,376.712 512,364.5C 512.333,350.5 512.667,336.5 513,322.5C 513.093,319.993 513.926,317.826 515.5,316C 556.94,296.404 600.273,290.237 645.5,297.5C 646.848,298.186 648.015,299.186 649,300.5C 650.356,299.62 651.856,299.286 653.5,299.5C 653.5,300.5 653.5,301.5 653.5,302.5C 656.86,302.384 660.193,302.051 663.5,301.5C 679.391,305.016 694.391,310.683 708.5,318.5C 711.007,324.658 715.673,327.325 722.5,326.5C 729.312,329.739 735.645,333.739 741.5,338.5C 741.215,340.288 741.548,341.955 742.5,343.5C 744.937,344.803 747.104,346.47 749,348.5C 749.617,349.449 749.451,350.282 748.5,351C 753.336,352.337 757.503,354.837 761,358.5C 761.383,357.944 761.883,357.611 762.5,357.5C 773.164,367.174 782.164,378.174 789.5,390.5C 789.427,392.027 790.094,393.027 791.5,393.5C 805.224,413.962 814.891,436.295 820.5,460.5C 820.171,463.228 820.837,465.562 822.5,467.5C 823.219,469.764 823.552,472.097 823.5,474.5C 823.444,479.731 824.111,484.731 825.5,489.5C 826.445,494.405 826.779,499.405 826.5,504.5C 826.278,515.504 825.944,526.504 825.5,537.5C 824.887,550.515 822.554,563.182 818.5,575.5C 815.996,575.828 814.162,577.162 813,579.5C 812.667,578.833 812.333,578.167 812,577.5C 810.352,583.386 809.352,589.386 809,595.5C 808.692,594.692 808.192,594.025 807.5,593.5C 804.026,599.067 802.692,598.4 803.5,591.5C 802.127,591.343 800.793,591.51 799.5,592C 800.624,592.839 801.291,594.006 801.5,595.5C 800.818,596.817 800.151,598.15 799.5,599.5C 802.55,598.923 804.55,600.09 805.5,603C 804.351,606.259 803.351,609.592 802.5,613C 799.737,615.352 797.57,618.185 796,621.5C 792.743,617.431 791.576,617.931 792.5,623C 789.44,623.151 787.107,624.485 785.5,627C 786.793,627.49 788.127,627.657 789.5,627.5C 789.67,628.822 789.337,629.989 788.5,631C 790.426,631.422 791.426,632.589 791.5,634.5C 787.323,641.525 782.656,648.192 777.5,654.5C 773.893,654.379 771.727,656.045 771,659.5C 770.667,659.167 770.333,658.833 770,658.5C 769.667,660.167 769.333,661.833 769,663.5C 768.195,661.099 767.362,661.266 766.5,664C 767.252,664.671 767.586,665.504 767.5,666.5C 763.573,665.403 761.573,667.07 761.5,671.5C 760.167,671.5 758.833,671.5 757.5,671.5C 757.5,673.167 757.5,674.833 757.5,676.5C 756.175,675.047 755.342,675.381 755,677.5C 754.259,676.359 753.425,676.359 752.5,677.5C 751.571,678.689 751.238,680.022 751.5,681.5C 747.676,681.735 745.676,683.735 745.5,687.5C 739.423,692.25 733.09,696.583 726.5,700.5C 725.167,700.5 723.833,700.5 722.5,700.5C 722.5,701.5 722.5,702.5 722.5,703.5C 712.396,709.886 701.729,715.219 690.5,719.5C 688.139,719.326 685.806,718.993 683.5,718.5C 683.567,719.959 683.234,721.292 682.5,722.5C 681.432,723.434 680.099,723.768 678.5,723.5C 675.017,723.327 672.017,724.327 669.5,726.5C 650.268,732.513 630.435,735.513 610,735.5C 594.103,735.489 578.603,733.489 563.5,729.5C 560.781,728.087 557.781,727.42 554.5,727.5C 554.167,727.5 553.833,727.5 553.5,727.5C 552.158,726.207 550.491,725.374 548.5,725C 551.167,724.333 551.167,723.667 548.5,723C 546.965,722.504 545.465,722.67 544,723.5C 542.238,723.056 542.405,722.556 544.5,722C 544,721.833 543.5,721.667 543,721.5C 540.589,722.127 538.089,722.127 535.5,721.5C 527.483,719.442 520.316,715.776 514,710.5C 512.979,687.332 512.479,664.165 512.5,641C 512.667,632.833 512.833,624.667 513,616.5C 513.308,615.692 513.808,615.025 514.5,614.5C 550.488,646.155 592.154,657.488 639.5,648.5C 642.152,648.59 644.485,647.924 646.5,646.5C 654.758,643.187 663.091,639.854 671.5,636.5C 672.735,636.721 673.735,637.388 674.5,638.5C 679.904,635.376 685.57,631.543 691.5,627C 689.381,626.658 689.047,625.825 690.5,624.5C 691.262,622.738 692.596,621.738 694.5,621.5C 697.427,620.243 699.761,618.243 701.5,615.5C 708.906,607.435 715.906,599.101 722.5,590.5C 723.397,589.402 724.23,589.402 725,590.5C 725.862,588.913 726.529,587.246 727,585.5C 727.333,585.833 727.667,586.167 728,586.5C 729.528,582.525 730.694,578.525 731.5,574.5C 732.552,574.649 733.552,574.483 734.5,574C 733.244,573.583 732.577,572.75 732.5,571.5C 732.5,571.167 732.5,570.833 732.5,570.5C 735.431,567.987 736.765,564.653 736.5,560.5C 738.472,557.916 739.472,554.916 739.5,551.5C 746.173,521.015 744.506,491.015 734.5,461.5C 731.44,447.193 724.774,434.693 714.5,424C 714.833,423.667 715.167,423.333 715.5,423C 713.008,423.08 710.675,422.247 708.5,420.5C 677.242,387.015 638.575,372.515 592.5,377C 581.277,378.778 570.277,381.444 559.5,385C 548.082,390.622 537.082,396.788 526.5,403.5C 522.665,402.626 520.332,404.293 519.5,408.5C 514.833,408.5 512.5,410.833 512.5,415.5C 503.283,425.051 495.616,435.717 489.5,447.5C 488.672,453.319 488.172,459.319 488,465.5C 487.5,550.833 487.333,636.166 487.5,721.5C 486.127,721.343 484.793,721.51 483.5,722C 486.097,724.262 485.93,726.095 483,727.5C 482.51,728.793 482.343,730.127 482.5,731.5C 480.035,733.837 477.035,735.337 473.5,736C 456.833,736.667 440.167,736.667 423.5,736C 417.889,734.386 413.389,731.219 410,726.5C 403.215,712.598 396.715,698.598 390.5,684.5C 390.216,682.123 390.216,679.956 390.5,678C 388.285,676.057 388.285,674.391 390.5,673C 389.333,672.5 388.5,671.667 388,670.5C 387.667,670.833 387.333,671.167 387,671.5C 383.834,664.839 380.667,658.173 377.5,651.5C 377.833,650.833 378.167,650.167 378.5,649.5C 376.377,647.69 374.043,646.357 371.5,645.5C 347.072,596.435 322.905,547.102 299,497.5C 298.578,499.355 298.078,501.189 297.5,503C 297.956,551.549 298.289,600.382 298.5,649.5C 297.424,674.107 296.091,698.773 294.5,723.5C 292.641,723.461 291.308,724.294 290.5,726C 291.823,726.816 292.489,727.983 292.5,729.5C 289.813,733.182 286.146,735.349 281.5,736C 263.167,736.667 244.833,736.667 226.5,736C 219.763,734.264 215.263,730.097 213,723.5C 211.838,653.556 211.338,583.556 211.5,513.5C 211.338,443.444 211.838,373.444 213,303.5C 216.043,298.123 220.543,294.623 226.5,293C 244.833,292.333 263.167,292.333 281.5,293C 286.279,294.043 289.946,296.543 292.5,300.5 Z M 607.5,502.5 C 608.5,502.5 609.5,502.5 610.5,502.5C 620.63,506.056 623.463,512.722 619,522.5C 617.786,524.049 616.286,525.215 614.5,526C 605.752,528.902 600.086,526.069 597.5,517.5C 596.884,509.795 600.218,504.795 607.5,502.5 Z" />
  </g>
  <g>
    <path fill="#2b2d2b" d="M 645.5,297.5 C 651.751,298.233 657.751,299.566 663.5,301.5C 660.193,302.051 656.86,302.384 653.5,302.5C 653.5,301.5 653.5,300.5 653.5,299.5C 651.856,299.286 650.356,299.62 649,300.5C 648.015,299.186 646.848,298.186 645.5,297.5 Z" />
  </g>
  <g>
    <path fill="#1e1e20" d="M 292.5,300.5 C 294.223,302.253 295.723,304.253 297,306.5C 301.845,316.855 306.678,327.188 311.5,337.5C 310.175,336.047 309.342,336.381 309,338.5C 307.513,337.747 307.346,336.914 308.5,336C 303.695,328.224 299.528,320.057 296,311.5C 295.097,310.299 293.931,309.465 292.5,309C 293.584,306.81 292.917,305.144 290.5,304C 291.823,303.184 292.489,302.017 292.5,300.5 Z" />
  </g>
  <g>
    <path fill="#2e2f31" d="M 708.5,318.5 C 713.5,320.664 718.167,323.331 722.5,326.5C 715.673,327.325 711.007,324.658 708.5,318.5 Z" />
  </g>
  <g>
    <path fill="#a8a9a9" d="M 489.5,312.5 C 489.169,338.339 489.502,364.005 490.5,389.5C 490.44,390.043 490.107,390.376 489.5,390.5C 488.171,364.336 488.171,338.336 489.5,312.5 Z" />
  </g>
  <g>
    <path fill="#222325" d="M 311.5,337.5 C 316.341,345.849 320.675,354.516 324.5,363.5C 323.504,363.586 322.671,363.252 322,362.5C 319.74,357.049 316.74,352.049 313,347.5C 312.174,344.207 311.674,340.874 311.5,337.5 Z" />
  </g>
  <g>
    <path fill="#212122" d="M 741.5,338.5 C 749.422,343.753 756.422,350.086 762.5,357.5C 761.883,357.611 761.383,357.944 761,358.5C 757.503,354.837 753.336,352.337 748.5,351C 749.451,350.282 749.617,349.449 749,348.5C 747.104,346.47 744.937,344.803 742.5,343.5C 741.548,341.955 741.215,340.288 741.5,338.5 Z" />
  </g>
  <g>
    <path fill="#7e8788" d="M 789.5,390.5 C 790.906,390.973 791.573,391.973 791.5,393.5C 790.094,393.027 789.427,392.027 789.5,390.5 Z" />
  </g>
  <g>
    <path fill="#7e7e7e" d="M 618.5,399.5 C 619.906,399.973 620.573,400.973 620.5,402.5C 619.094,402.027 618.427,401.027 618.5,399.5 Z" />
  </g>
  <g>
    <path fill="#1e1e20" d="M 324.5,363.5 C 334.675,382.516 344.341,401.849 353.5,421.5C 352.603,420.402 351.77,420.402 351,421.5C 350.333,420.833 349.667,420.167 349,419.5C 346.118,412.573 343.451,406.24 341,400.5C 340.667,400.833 340.333,401.167 340,401.5C 337.37,395.819 334.704,389.486 332,382.5C 331.667,383.167 331.333,383.833 331,384.5C 330.147,377.296 326.98,371.129 321.5,366C 323.119,365.764 324.119,364.931 324.5,363.5 Z" />
  </g>
  <g>
    <path fill="#262c30" d="M 526.5,403.5 C 522.153,407.845 517.486,411.845 512.5,415.5C 512.5,410.833 514.833,408.5 519.5,408.5C 520.332,404.293 522.665,402.626 526.5,403.5 Z" />
  </g>
  <g>
    <path fill="#060708" d="M 611.5,395.5 C 611.918,396.222 612.584,396.722 613.5,397C 613.167,397.333 612.833,397.667 612.5,398C 613.448,398.483 614.448,398.649 615.5,398.5C 615.608,400.783 616.441,402.783 618,404.5C 618.167,413 618.333,421.5 618.5,430C 618.003,450.024 617.336,469.857 616.5,489.5C 617.833,490.833 619.167,492.167 620.5,493.5C 612.527,495.937 612.527,498.104 620.5,500C 618.516,501.81 616.349,501.976 614,500.5C 612.238,500.944 612.405,501.444 614.5,502C 613.207,502.49 611.873,502.657 610.5,502.5C 609.5,502.5 608.5,502.5 607.5,502.5C 604.518,502.104 601.851,502.771 599.5,504.5C 598.833,504.167 598.167,503.833 597.5,503.5C 596.509,507.445 596.176,511.445 596.5,515.5C 594.815,516.184 593.815,517.517 593.5,519.5C 595.66,521.831 597.66,524.331 599.5,527C 602.173,528.001 604.507,529.501 606.5,531.5C 609.167,530.833 611.833,530.167 614.5,529.5C 615.696,529.846 615.696,530.346 614.5,531C 617.047,531.067 619.214,531.901 621,533.5C 622.307,532.228 623.807,531.228 625.5,530.5C 624.028,527.851 623.028,525.018 622.5,522C 623.126,521.25 623.626,520.416 624,519.5C 624.667,514.167 625.333,508.833 626,503.5C 626.684,508.236 627.684,512.903 629,517.5C 629.772,518.849 630.939,519.682 632.5,520C 631.228,522.044 631.561,523.878 633.5,525.5C 632.465,527.128 632.465,528.795 633.5,530.5C 631.871,532.06 630.704,531.727 630,529.5C 629.667,530.5 629.333,531.5 629,532.5C 628.667,532.167 628.333,531.833 628,531.5C 626.569,534.037 624.735,536.204 622.5,538C 620.821,538.395 619.155,538.228 617.5,537.5C 615.344,539.492 612.844,540.825 610,541.5C 608.833,541.167 607.667,540.833 606.5,540.5C 607.319,538.084 606.652,537.918 604.5,540C 605.706,541.018 605.373,541.518 603.5,541.5C 600.46,540.563 597.626,539.229 595,537.5C 593.862,537.989 592.695,538.322 591.5,538.5C 586.421,534.679 583.088,529.679 581.5,523.5C 581.407,517.137 581.74,510.804 582.5,504.5C 584.843,498.134 588.843,493.134 594.5,489.5C 596.492,461.186 597.159,432.519 596.5,403.5C 599.229,396.304 604.229,393.638 611.5,395.5 Z" />
  </g>
  <g>
    <path fill="#28292a" d="M 708.5,420.5 C 710.675,422.247 713.008,423.08 715.5,423C 715.167,423.333 714.833,423.667 714.5,424C 724.774,434.693 731.44,447.193 734.5,461.5C 728.108,446.381 719.442,432.715 708.5,420.5 Z" />
  </g>
  <g>
    <path fill="#636466" d="M 596.5,403.5 C 597.159,432.519 596.492,461.186 594.5,489.5C 595.159,460.736 595.826,432.069 596.5,403.5 Z" />
  </g>
  <g>
    <path fill="#636667" d="M 820.5,460.5 C 821.612,462.599 822.279,464.933 822.5,467.5C 820.837,465.562 820.171,463.228 820.5,460.5 Z" />
  </g>
  <g>
    <path fill="#37393b" d="M 710.5,461.5 C 709.754,465.323 707.754,468.323 704.5,470.5C 703.213,467.57 703.713,465.237 706,463.5C 706.333,464.167 706.667,464.833 707,465.5C 708.032,463.973 709.199,462.64 710.5,461.5 Z" />
  </g>
  <g>
    <path fill="#828486" d="M 621.5,405.5 C 622.167,433.5 622.833,461.5 623.5,489.5C 623.44,490.043 623.107,490.376 622.5,490.5C 621.5,462.175 621.167,433.841 621.5,405.5 Z" />
  </g>
  <g>
    <path fill="#4b4b4c" d="M 823.5,474.5 C 824.889,479.269 825.556,484.269 825.5,489.5C 824.111,484.731 823.444,479.731 823.5,474.5 Z" />
  </g>
  <g>
    <path fill="#0d0e0f" d="M 611.5,395.5 C 614.614,395.555 616.948,396.888 618.5,399.5C 618.427,401.027 619.094,402.027 620.5,402.5C 621.404,403.209 621.737,404.209 621.5,405.5C 621.167,433.841 621.5,462.175 622.5,490.5C 623.107,490.376 623.44,490.043 623.5,489.5C 639.956,476.105 656.956,463.438 674.5,451.5C 676.404,451.262 677.738,450.262 678.5,448.5C 688.741,437.921 698.908,437.921 709,448.5C 711.412,452.778 711.912,457.111 710.5,461.5C 709.199,462.64 708.032,463.973 707,465.5C 706.667,464.833 706.333,464.167 706,463.5C 703.713,465.237 703.213,467.57 704.5,470.5C 682.234,486.919 660.067,503.585 638,520.5C 637.156,524.229 635.656,527.563 633.5,530.5C 632.465,528.795 632.465,527.128 633.5,525.5C 631.561,523.878 631.228,522.044 632.5,520C 630.939,519.682 629.772,518.849 629,517.5C 627.684,512.903 626.684,508.236 626,503.5C 625.333,508.833 624.667,514.167 624,519.5C 623.626,520.416 623.126,521.25 622.5,522C 623.028,525.018 624.028,527.851 625.5,530.5C 623.807,531.228 622.307,532.228 621,533.5C 619.214,531.901 617.047,531.067 614.5,531C 615.696,530.346 615.696,529.846 614.5,529.5C 611.833,530.167 609.167,530.833 606.5,531.5C 604.507,529.501 602.173,528.001 599.5,527C 597.66,524.331 595.66,521.831 593.5,519.5C 593.815,517.517 594.815,516.184 596.5,515.5C 596.328,516.492 596.662,517.158 597.5,517.5C 600.086,526.069 605.752,528.902 614.5,526C 616.286,525.215 617.786,524.049 619,522.5C 623.463,512.722 620.63,506.056 610.5,502.5C 611.873,502.657 613.207,502.49 614.5,502C 612.405,501.444 612.238,500.944 614,500.5C 616.349,501.976 618.516,501.81 620.5,500C 612.527,498.104 612.527,495.937 620.5,493.5C 619.167,492.167 617.833,490.833 616.5,489.5C 617.336,469.857 618.003,450.024 618.5,430C 618.333,421.5 618.167,413 618,404.5C 616.441,402.783 615.608,400.783 615.5,398.5C 614.448,398.649 613.448,398.483 612.5,398C 612.833,397.667 613.167,397.333 613.5,397C 612.584,396.722 611.918,396.222 611.5,395.5 Z" />
  </g>
  <g>
    <path fill="#6f6f70" d="M 678.5,448.5 C 677.738,450.262 676.404,451.262 674.5,451.5C 675.262,449.738 676.596,448.738 678.5,448.5 Z" />
  </g>
  <g>
    <path fill="#141415" d="M 722.5,507.5 C 722.427,509.027 723.094,510.027 724.5,510.5C 726.048,514.43 725.715,518.097 723.5,521.5C 722.542,521.953 721.708,522.619 721,523.5C 720.667,522.833 720.333,522.167 720,521.5C 719.648,523.247 719.148,524.914 718.5,526.5C 718.082,527.222 717.416,527.722 716.5,528C 708.5,528.667 700.5,528.667 692.5,528C 682.632,523.069 680.466,515.903 686,506.5C 688.258,504.57 690.758,503.07 693.5,502C 701.911,501.095 710.245,501.428 718.5,503C 720.041,504.371 721.375,505.871 722.5,507.5 Z" />
  </g>
  <g>
    <path fill="#8a8b8c" d="M 538.5,504.5 C 540.262,505.262 541.262,506.596 541.5,508.5C 539.738,507.738 538.738,506.404 538.5,504.5 Z" />
  </g>
  <g>
    <path fill="#393b3d" d="M 607.5,502.5 C 600.218,504.795 596.884,509.795 597.5,517.5C 596.662,517.158 596.328,516.492 596.5,515.5C 596.176,511.445 596.509,507.445 597.5,503.5C 598.167,503.833 598.833,504.167 599.5,504.5C 601.851,502.771 604.518,502.104 607.5,502.5 Z" />
  </g>
  <g>
    <path fill="#8c8c90" d="M 722.5,507.5 C 723.906,507.973 724.573,508.973 724.5,510.5C 723.094,510.027 722.427,509.027 722.5,507.5 Z" />
  </g>
  <g>
    <path fill="#121314" d="M 538.5,504.5 C 538.738,506.404 539.738,507.738 541.5,508.5C 541.5,512.167 541.5,515.833 541.5,519.5C 538.515,526.691 533.015,529.691 525,528.5C 512.097,529.264 506.43,523.264 508,510.5C 509.5,506.333 512.333,503.5 516.5,502C 522.167,501.333 527.833,501.333 533.5,502C 535.452,502.366 537.118,503.199 538.5,504.5 Z" />
  </g>
  <g>
    <path fill="#737476" d="M 541.5,508.5 C 543.876,512.213 543.876,515.88 541.5,519.5C 541.5,515.833 541.5,512.167 541.5,508.5 Z" />
  </g>
  <g>
    <path fill="#434447" d="M 489.5,447.5 C 489.408,537.723 489.242,628.056 489,718.5C 488.396,723.708 486.23,728.041 482.5,731.5C 482.343,730.127 482.51,728.793 483,727.5C 485.93,726.095 486.097,724.262 483.5,722C 484.793,721.51 486.127,721.343 487.5,721.5C 487.333,636.166 487.5,550.833 488,465.5C 488.172,459.319 488.672,453.319 489.5,447.5 Z" />
  </g>
  <g>
    <path fill="#636364" d="M 582.5,504.5 C 581.74,510.804 581.407,517.137 581.5,523.5C 579.43,517.216 579.764,510.882 582.5,504.5 Z" />
  </g>
  <g>
    <path fill="#666769" d="M 723.5,521.5 C 722.833,524.167 721.167,525.833 718.5,526.5C 719.148,524.914 719.648,523.247 720,521.5C 720.333,522.167 720.667,522.833 721,523.5C 721.708,522.619 722.542,521.953 723.5,521.5 Z" />
  </g>
  <g>
    <path fill="#76787c" d="M 826.5,504.5 C 827.674,515.528 827.341,526.528 825.5,537.5C 825.944,526.504 826.278,515.504 826.5,504.5 Z" />
  </g>
  <g>
    <path fill="#97999c" d="M 630.5,534.5 C 630.573,536.027 629.906,537.027 628.5,537.5C 627.984,536.242 628.65,535.242 630.5,534.5 Z" />
  </g>
  <g>
    <path fill="#222325" d="M 633.5,530.5 C 633.262,532.404 632.262,533.738 630.5,534.5C 628.65,535.242 627.984,536.242 628.5,537.5C 616.437,547.74 604.103,548.073 591.5,538.5C 592.695,538.322 593.862,537.989 595,537.5C 597.626,539.229 600.46,540.563 603.5,541.5C 605.373,541.518 605.706,541.018 604.5,540C 606.652,537.918 607.319,538.084 606.5,540.5C 607.667,540.833 608.833,541.167 610,541.5C 612.844,540.825 615.344,539.492 617.5,537.5C 619.155,538.228 620.821,538.395 622.5,538C 624.735,536.204 626.569,534.037 628,531.5C 628.333,531.833 628.667,532.167 629,532.5C 629.333,531.5 629.667,530.5 630,529.5C 630.704,531.727 631.871,532.06 633.5,530.5 Z" />
  </g>
  <g>
    <path fill="#5d5e5f" d="M 739.5,551.5 C 739.472,554.916 738.472,557.916 736.5,560.5C 736.928,557.215 737.928,554.215 739.5,551.5 Z" />
  </g>
  <g>
    <path fill="#4c4c4e" d="M 736.5,560.5 C 736.765,564.653 735.431,567.987 732.5,570.5C 733.658,567.011 734.991,563.678 736.5,560.5 Z" />
  </g>
  <g>
    <path fill="#2a2b2d" d="M 732.5,571.5 C 732.577,572.75 733.244,573.583 734.5,574C 733.552,574.483 732.552,574.649 731.5,574.5C 730.694,578.525 729.528,582.525 728,586.5C 727.667,586.167 727.333,585.833 727,585.5C 726.529,587.246 725.862,588.913 725,590.5C 724.23,589.402 723.397,589.402 722.5,590.5C 725.582,584.001 728.915,577.668 732.5,571.5 Z" />
  </g>
  <g>
    <path fill="#7b7b7d" d="M 602.5,591.5 C 602.027,592.906 601.027,593.573 599.5,593.5C 599.973,592.094 600.973,591.427 602.5,591.5 Z" />
  </g>
  <g>
    <path fill="#0f0f10" d="M 596.5,623.5 C 596.334,615.16 596.5,606.827 597,598.5C 598.094,596.922 598.928,595.255 599.5,593.5C 601.027,593.573 602.027,592.906 602.5,591.5C 611.865,587.76 618.365,590.76 622,600.5C 622.667,607.833 622.667,615.167 622,622.5C 617.919,633.361 610.752,636.028 600.5,630.5C 598.384,628.6 597.051,626.267 596.5,623.5 Z" />
  </g>
  <g>
    <path fill="#707173" d="M 599.5,593.5 C 598.928,595.255 598.094,596.922 597,598.5C 596.5,606.827 596.334,615.16 596.5,623.5C 595.343,615.01 595.176,606.343 596,597.5C 596.66,595.676 597.827,594.343 599.5,593.5 Z" />
  </g>
  <g>
    <path fill="#606365" d="M 701.5,615.5 C 699.761,618.243 697.427,620.243 694.5,621.5C 696.239,618.757 698.573,616.757 701.5,615.5 Z" />
  </g>
  <g>
    <path fill="#121517" d="M 818.5,575.5 C 812.962,596.899 803.962,616.566 791.5,634.5C 791.426,632.589 790.426,631.422 788.5,631C 789.337,629.989 789.67,628.822 789.5,627.5C 788.127,627.657 786.793,627.49 785.5,627C 787.107,624.485 789.44,623.151 792.5,623C 791.576,617.931 792.743,617.431 796,621.5C 797.57,618.185 799.737,615.352 802.5,613C 803.351,609.592 804.351,606.259 805.5,603C 804.55,600.09 802.55,598.923 799.5,599.5C 800.151,598.15 800.818,596.817 801.5,595.5C 801.291,594.006 800.624,592.839 799.5,592C 800.793,591.51 802.127,591.343 803.5,591.5C 802.692,598.4 804.026,599.067 807.5,593.5C 808.192,594.025 808.692,594.692 809,595.5C 809.352,589.386 810.352,583.386 812,577.5C 812.333,578.167 812.667,578.833 813,579.5C 814.162,577.162 815.996,575.828 818.5,575.5 Z" />
  </g>
  <g>
    <path fill="#242425" d="M 690.5,624.5 C 689.047,625.825 689.381,626.658 691.5,627C 685.57,631.543 679.904,635.376 674.5,638.5C 673.735,637.388 672.735,636.721 671.5,636.5C 677.828,632.508 684.162,628.508 690.5,624.5 Z" />
  </g>
  <g>
    <path fill="#606062" d="M 646.5,646.5 C 644.485,647.924 642.152,648.59 639.5,648.5C 641.515,647.076 643.848,646.41 646.5,646.5 Z" />
  </g>
  <g>
    <path fill="#19191a" d="M 371.5,645.5 C 374.043,646.357 376.377,647.69 378.5,649.5C 378.167,650.167 377.833,650.833 377.5,651.5C 380.667,658.173 383.834,664.839 387,671.5C 387.333,671.167 387.667,670.833 388,670.5C 388.5,671.667 389.333,672.5 390.5,673C 388.285,674.391 388.285,676.057 390.5,678C 390.216,679.956 390.216,682.123 390.5,684.5C 383.598,671.804 377.265,658.804 371.5,645.5 Z" />
  </g>
  <g>
    <path fill="#20292f" d="M 777.5,654.5 C 774.514,658.817 771.18,662.817 767.5,666.5C 767.586,665.504 767.252,664.671 766.5,664C 767.362,661.266 768.195,661.099 769,663.5C 769.333,661.833 769.667,660.167 770,658.5C 770.333,658.833 770.667,659.167 771,659.5C 771.727,656.045 773.893,654.379 777.5,654.5 Z" />
  </g>
  <g>
    <path fill="#21282f" d="M 767.5,666.5 C 764.5,670.167 761.167,673.5 757.5,676.5C 757.5,674.833 757.5,673.167 757.5,671.5C 758.833,671.5 760.167,671.5 761.5,671.5C 761.573,667.07 763.573,665.403 767.5,666.5 Z" />
  </g>
  <g>
    <path fill="#273034" d="M 757.5,676.5 C 754.126,680.876 750.126,684.542 745.5,687.5C 745.676,683.735 747.676,681.735 751.5,681.5C 751.238,680.022 751.571,678.689 752.5,677.5C 753.425,676.359 754.259,676.359 755,677.5C 755.342,675.381 756.175,675.047 757.5,676.5 Z" />
  </g>
  <g>
    <path fill="#595a5c" d="M 298.5,649.5 C 298.667,672.169 298.5,694.836 298,717.5C 297.779,722.365 295.946,726.365 292.5,729.5C 292.489,727.983 291.823,726.816 290.5,726C 291.308,724.294 292.641,723.461 294.5,723.5C 296.091,698.773 297.424,674.107 298.5,649.5 Z" />
  </g>
  <g>
    <path fill="#494e50" d="M 726.5,700.5 C 725.564,701.974 724.23,702.974 722.5,703.5C 722.5,702.5 722.5,701.5 722.5,700.5C 723.833,700.5 725.167,700.5 726.5,700.5 Z" />
  </g>
  <g>
    <path fill="#4a4b4e" d="M 690.5,719.5 C 688.064,720.871 685.397,721.871 682.5,722.5C 683.234,721.292 683.567,719.959 683.5,718.5C 685.806,718.993 688.139,719.326 690.5,719.5 Z" />
  </g>
  <g>
    <path fill="#2d2e2f" d="M 535.5,721.5 C 538.089,722.127 540.589,722.127 543,721.5C 543.5,721.667 544,721.833 544.5,722C 542.405,722.556 542.238,723.056 544,723.5C 545.465,722.67 546.965,722.504 548.5,723C 551.167,723.667 551.167,724.333 548.5,725C 550.491,725.374 552.158,726.207 553.5,727.5C 547.216,726.072 541.216,724.072 535.5,721.5 Z" />
  </g>
  <g>
    <path fill="#515254" d="M 678.5,723.5 C 675.916,725.472 672.916,726.472 669.5,726.5C 672.017,724.327 675.017,723.327 678.5,723.5 Z" />
  </g>
  <g>
    <path fill="#616465" d="M 554.5,727.5 C 557.781,727.42 560.781,728.087 563.5,729.5C 560.219,729.58 557.219,728.913 554.5,727.5 Z" />
  </g>
</svg>